<svg width="44" height="43" viewBox="0 0 44 43" fill="none" xmlns="http://www.w3.org/2000/svg">
<path d="M15.6539 0.201683C7.50084 0.201683 0.846161 6.81062 0.846161 14.9076C0.846161 23.0045 7.50084 29.6134 15.6539 29.6134C19.3515 29.6134 22.7298 28.2437 25.3301 26.0026L26.2308 26.8971V29.6134L38.9231 42.2185L43.1539 38.0168L30.4615 25.4118H27.7264L26.8257 24.5173C29.0824 21.9349 30.4615 18.5798 30.4615 14.9076C30.4615 6.81062 23.8069 0.201683 15.6539 0.201683ZM15.6539 4.40336C21.5204 4.40336 26.2308 9.08137 26.2308 14.9076C26.2308 20.7338 21.5204 25.4118 15.6539 25.4118C9.78732 25.4118 5.07693 20.7338 5.07693 14.9076C5.07693 9.08137 9.78732 4.40336 15.6539 4.40336Z" fill="white"/>
</svg>
